<svg xmlns="http://www.w3.org/2000/svg" width="500" height="500">
  <!-- Definindo um gradiente radial para dar uma aparência de textura rugosa -->
  <defs>
    <radialGradient id="stoneGradient" cx="50%" cy="50%" r="50%">
      <stop offset="0%" style="stop-color:#a8a69d; stop-opacity:1" />
      <stop offset="100%" style="stop-color:#6e6b66; stop-opacity:1" />
    </radialGradient>
    <filter id="noiseFilter">
      <feTurbulence type="fractalNoise" baseFrequency="0.8" numOctaves="3" />
      <feColorMatrix type="saturate" values="0.3" />
      <feComposite operator="in" in2="SourceGraphic" />
    </filter>
  </defs>

  <!-- Aplicando a base da pedra -->
  <rect x="0" y="0" width="500" height="500" fill="url(#stoneGradient)" />

  <!-- Camada de ruído para dar mais textura -->
  <rect x="0" y="0" width="500" height="500" fill="url(#stoneGradient)" filter="url(#noiseFilter)" opacity="0.4" />

  <!-- Adicionando formas irregulares para imitar rachaduras ou veios de pedra -->
  <path d="M 100 100 C 150 120, 180 150, 200 180 S 300 300, 350 350"
        stroke="#4a4742" stroke-width="3" fill="none" opacity="0.6"/>
  <path d="M 400 150 C 350 200, 280 250, 300 300 S 200 400, 100 450"
        stroke="#4a4742" stroke-width="2" fill="none" opacity="0.5"/>
  <path d="M 50 400 C 100 380, 200 350, 220 320 S 300 300, 400 250"
        stroke="#0e0b07" stroke-width="3" fill="none" opacity="0.4"/>
  <!-- Novas rachaduras adicionadas -->
  <path d="M 300 50 C 320 70, 340 100, 360 120 S 400 180, 420 200"
        stroke="#4a4742" stroke-width="2" fill="none" opacity="0.5"/>
  <path d="M 20 300 C 50 320, 100 340, 120 360 S 150 400, 180 450"
        stroke="#0e0b07" stroke-width="2" fill="none" opacity="0.4"/>
  <path d="M 250 250 C 270 270, 300 290, 320 320 S 350 370, 380 400"
        stroke="#4a4742" stroke-width="3" fill="none" opacity="0.6"/>
  <path d="M 450 50 C 420 80, 390 110, 360 140 S 320 200, 300 250"
        stroke="#0e0b07" stroke-width="2" fill="none" opacity="0.5"/>
  <path d="M 100 200 C 150 220, 180 260, 200 280 S 250 320, 300 340"
        stroke="#4a4742" stroke-width="2" fill="none" opacity="0.5"/>
  <!-- Mais rachaduras adicionadas -->
  <path d="M 350 450 C 370 430, 390 410, 410 390 S 430 350, 450 300"
        stroke="#0e0b07" stroke-width="3" fill="none" opacity="0.4"/>
  <path d="M 50 50 C 80 70, 120 90, 150 120 S 200 180, 250 200"
        stroke="#4a4742" stroke-width="2" fill="none" opacity="0.5"/>
  <path d="M 200 450 C 220 420, 240 390, 260 370 S 300 340, 350 320"
        stroke="#0e0b07" stroke-width="2" fill="none" opacity="0.4"/>
  <path d="M 30 200 C 60 230, 90 260, 120 290 S 150 330, 180 350"
        stroke="#4a4742" stroke-width="3" fill="none" opacity="0.6"/>
  <path d="M 420 220 C 400 250, 370 280, 340 310 S 300 360, 270 400"
        stroke="#4a4742" stroke-width="2" fill="none" opacity="0.5"/>
  <!-- Rachaduras dramáticas adicionais -->
  <path d="M 10 10 C 30 40, 50 70, 80 100 S 120 150, 150 180"
        stroke="#0e0b07" stroke-width="3" fill="none" opacity="0.6"/>
  <path d="M 200 100 C 230 130, 260 160, 290 190 S 320 220, 350 250"
        stroke="#4a4742" stroke-width="3" fill="none" opacity="0.7"/>
  <path d="M 400 400 C 420 380, 440 360, 460 340 S 480 300, 490 270"
        stroke="#4a4742" stroke-width="2" fill="none" opacity="0.5"/>
  <path d="M 50 450 C 70 430, 100 400, 130 370 S 160 340, 200 320"
        stroke="#0e0b07" stroke-width="4" fill="none" opacity="0.6"/>
  <path d="M 300 300 C 320 320, 340 340, 360 360 S 400 400, 420 450"
        stroke="#4a4742" stroke-width="3" fill="none" opacity="0.5"/>
  <path d="M 100 300 C 130 280, 170 250, 200 230 S 250 200, 280 180"
        stroke="#0e0b07" stroke-width="3" fill="none" opacity="0.6"/>
  <path d="M 0 250 C 30 280, 60 310, 100 340 S 150 380, 200 400"
        stroke="#4a4742" stroke-width="3" fill="none" opacity="0.5"/>
  <path d="M 250 50 C 270 80, 300 110, 330 140 S 370 180, 400 200"
        stroke="#4a4742" stroke-width="2" fill="none" opacity="0.5"/>
  <path d="M 450 250 C 420 280, 380 320, 340 350 S 300 380, 250 400"
        stroke="#0e0b07" stroke-width="4" fill="none" opacity="0.7"/>
  <path d="M 20 480 C 60 460, 100 440, 140 420 S 200 380, 240 360"
        stroke="#4a4742" stroke-width="3" fill="none" opacity="0.6"/>
</svg>
